<?xml version="1.0" encoding="utf-8"?>
<!-- Generator: Adobe Illustrator 22.1.0, SVG Export Plug-In . SVG Version: 6.00 Build 0)  -->
<svg version="1.1" id="Calque_1" xmlns="http://www.w3.org/2000/svg" xmlns:xlink="http://www.w3.org/1999/xlink" x="0px" y="0px"
	 viewBox="0 0 1986.6 339.8" style="enable-background:new 0 0 1986.6 339.8;" xml:space="preserve">
<style type="text/css">
	.st0{fill:#FFFFFF;}
	.st1{fill:#FF0000;}
	.st2{enable-background:new    ;}
</style>
<g>
	<rect x="6.9" y="7" class="st0" width="325.8" height="325.8"/>
	<g>
		<path class="st1" d="M325.6,14.1v311.7H14V14.1H325.6 M339.8-0.1h-340v340h340V-0.1L339.8-0.1z"/>
	</g>
</g>
<g>
	<g class="st2">
		<path class="st1" d="M29.3,168.8h13v6.6c3.2-4.3,7.6-7.5,14.3-7.5c10.7,0,20.9,8.4,20.9,23.8v0.2c0,15.4-10,23.8-20.9,23.8
			c-6.9,0-11.2-3.2-14.3-6.9v19.7h-13V168.8z M64.6,191.9v-0.2c0-7.6-5.1-12.7-11.2-12.7s-11.2,5.1-11.2,12.7v0.2
			c0,7.6,5.1,12.7,11.2,12.7S64.6,199.6,64.6,191.9z"/>
		<path class="st1" d="M87.2,168.8h13v9.3c2.7-6.3,6.9-10.5,14.7-10.1v13.6h-0.7c-8.7,0-14,5.2-14,16.2v17h-13V168.8z"/>
		<path class="st1" d="M119.6,192.1v-0.2c0-13.2,10.6-23.9,25-23.9c14.2,0,24.8,10.6,24.8,23.8v0.2c0,13.2-10.6,23.9-25,23.9
			C130.1,215.8,119.6,205.3,119.6,192.1z M156.5,192.1v-0.2c0-6.8-4.9-12.7-12.1-12.7c-7.5,0-11.9,5.7-11.9,12.5v0.2
			c0,6.8,4.9,12.7,12.1,12.7C152,204.6,156.5,198.9,156.5,192.1z"/>
		<path class="st1" d="M180.9,201.8V180h-5.5v-11.2h5.5v-11.8h13v11.8h10.8V180H194v19.6c0,3,1.3,4.5,4.2,4.5c2.4,0,4.5-0.6,6.4-1.6
			v10.5c-2.7,1.6-5.9,2.7-10.3,2.7C186.3,215.6,180.9,212.4,180.9,201.8z"/>
		<path class="st1" d="M210.9,192.1v-0.2c0-13.2,10.6-23.9,25-23.9c14.2,0,24.8,10.6,24.8,23.8v0.2c0,13.2-10.6,23.9-25,23.9
			C221.4,215.8,210.9,205.3,210.9,192.1z M247.8,192.1v-0.2c0-6.8-4.9-12.7-12.1-12.7c-7.5,0-11.9,5.7-11.9,12.5v0.2
			c0,6.8,4.9,12.7,12.1,12.7C243.3,204.6,247.8,198.9,247.8,192.1z"/>
	</g>
	<g class="st2">
		<path class="st1" d="M31.5,286.8V265H26v-11.2h5.5v-11.8h13v11.8h10.8V265H44.5v19.6c0,3,1.3,4.5,4.2,4.5c2.4,0,4.5-0.6,6.4-1.6
			v10.5c-2.7,1.6-5.9,2.7-10.3,2.7C36.9,300.6,31.5,297.4,31.5,286.8z"/>
		<path class="st1" d="M64.3,310.6l4.4-9.4c1.7,1,3.9,1.8,5.6,1.8c2.2,0,3.4-0.7,4.5-3l-18-46.2h13.8l10.5,31.3l10-31.3h13.6
			L91,300.9c-3.5,9.4-7.3,12.9-15.1,12.9C71.2,313.8,67.7,312.6,64.3,310.6z"/>
		<path class="st1" d="M116.4,253.8h13v6.6c3.2-4.3,7.6-7.5,14.3-7.5c10.7,0,20.9,8.4,20.9,23.8v0.2c0,15.4-10,23.8-20.9,23.8
			c-6.9,0-11.2-3.2-14.3-6.9v19.7h-13V253.8z M151.7,276.9v-0.2c0-7.6-5.1-12.7-11.2-12.7s-11.2,5.1-11.2,12.7v0.2
			c0,7.6,5.1,12.7,11.2,12.7S151.7,284.6,151.7,276.9z"/>
		<path class="st1" d="M172.1,277.1v-0.2c0-13.1,9.4-23.9,22.7-23.9c15.4,0,22.4,11.9,22.4,25c0,1-0.1,2.2-0.2,3.4h-32
			c1.3,5.9,5.4,9,11.2,9c4.4,0,7.6-1.4,11.2-4.7l7.5,6.6c-4.3,5.3-10.5,8.6-18.8,8.6C182.3,300.8,172.1,291.2,172.1,277.1z
			 M204.5,273.2c-0.8-5.8-4.2-9.8-9.7-9.8c-5.4,0-8.9,3.9-10,9.8H204.5z"/>
	</g>
</g>
<g>
	<rect x="555.9" y="7" class="st0" width="325.8" height="325.8"/>
	<path class="st1" d="M874.6,14.1v311.7H563V14.1H874.6 M888.8-0.1h-340v340h340V-0.1L888.8-0.1z"/>
</g>
<g class="st2">
	<path class="st1" d="M580.5,201.8V180H575v-11.2h5.5v-11.8h13v11.8h10.8V180h-10.8v19.6c0,3,1.3,4.5,4.2,4.5c2.4,0,4.5-0.6,6.4-1.6
		v10.5c-2.7,1.6-5.9,2.7-10.3,2.7C585.9,215.6,580.5,212.4,580.5,201.8z"/>
	<path class="st1" d="M610.4,192.1v-0.2c0-13.1,9.4-23.9,22.7-23.9c15.4,0,22.4,11.9,22.4,25c0,1-0.1,2.2-0.2,3.4h-32
		c1.3,5.9,5.4,9,11.2,9c4.4,0,7.6-1.4,11.2-4.7l7.5,6.6c-4.3,5.3-10.5,8.6-18.8,8.6C620.6,215.8,610.4,206.2,610.4,192.1z
		 M642.8,188.2c-0.8-5.8-4.2-9.8-9.7-9.8c-5.4,0-8.9,3.9-10,9.8H642.8z"/>
	<path class="st1" d="M661.6,208.7l5.6-8.6c5,3.6,10.2,5.5,14.5,5.5c3.8,0,5.5-1.4,5.5-3.4V202c0-2.8-4.5-3.8-9.5-5.3
		c-6.4-1.9-13.7-4.9-13.7-13.8v-0.2c0-9.4,7.6-14.6,16.8-14.6c5.8,0,12.2,2,17.2,5.3l-5,9c-4.5-2.7-9.1-4.3-12.4-4.3
		c-3.2,0-4.8,1.4-4.8,3.2v0.2c0,2.6,4.4,3.8,9.4,5.5c6.4,2.1,13.9,5.2,13.9,13.6v0.2c0,10.2-7.6,14.8-17.6,14.8
		C674.9,215.7,667.7,213.5,661.6,208.7z"/>
	<path class="st1" d="M709.6,201.8V180h-5.5v-11.2h5.5v-11.8h13v11.8h10.8V180h-10.8v19.6c0,3,1.3,4.5,4.2,4.5
		c2.4,0,4.5-0.6,6.4-1.6v10.5c-2.7,1.6-5.9,2.7-10.3,2.7C715,215.6,709.6,212.4,709.6,201.8z"/>
	<path class="st1" d="M777.9,209c-4.9,4-10.6,6.7-17.6,6.7c-11.5,0-20.2-6.7-20.2-17.3v-0.2c0-7.6,4.1-13,11.7-16.5
		c-2.9-4.1-4.2-7.9-4.2-12v-0.2c0-8.2,6.6-15.8,18.2-15.8c10.2,0,16.9,6.7,16.9,15.1v0.2c0,8.1-5.1,12.8-12.6,15.7l8,8
		c2-3.1,3.9-6.6,5.8-10.3l9.7,5.3c-2.3,4.2-4.9,8.7-7.9,12.7l8.8,8.8l-9.7,6.8L777.9,209z M770.5,201.4L759,189.8
		c-3.9,2.1-5.6,5-5.6,7.9v0.2c0,4.2,3.5,7,8.4,7C764.8,204.9,767.8,203.6,770.5,201.4z M771.2,169.8v-0.2c0-3.4-2.3-5.6-5.7-5.6
		c-3.5,0-5.8,2.5-5.8,6.1v0.2c0,2.7,1,4.6,3.5,7.5C768.4,175.8,771.2,173.6,771.2,169.8z"/>
</g>
<g class="st2">
	<path class="st1" d="M578.6,237.2h13.7v11.6h-13.7V237.2z M578.9,253.8h13v46h-13V253.8z"/>
	<path class="st1" d="M606.4,286.8V265h-5.5v-11.2h5.5v-11.8h13v11.8h10.8V265h-10.8v19.6c0,3,1.3,4.5,4.2,4.5
		c2.4,0,4.5-0.6,6.4-1.6v10.5c-2.7,1.6-5.9,2.7-10.3,2.7C611.8,300.6,606.4,297.4,606.4,286.8z"/>
	<path class="st1" d="M636.3,277.1v-0.2c0-13.1,9.4-23.9,22.7-23.9c15.4,0,22.4,11.9,22.4,25c0,1-0.1,2.2-0.2,3.4h-32
		c1.3,5.9,5.4,9,11.2,9c4.4,0,7.6-1.4,11.2-4.7l7.5,6.6c-4.3,5.3-10.5,8.6-18.8,8.6C646.5,300.8,636.3,291.2,636.3,277.1z
		 M668.7,273.2c-0.8-5.8-4.2-9.8-9.7-9.8c-5.4,0-8.9,3.9-10,9.8H668.7z"/>
	<path class="st1" d="M691.1,253.8h13v9.3c2.7-6.3,6.9-10.5,14.7-10.1v13.6h-0.7c-8.7,0-14,5.2-14,16.2v17h-13V253.8z"/>
	<path class="st1" d="M722.1,286.6v-0.2c0-10,7.6-14.7,18.5-14.7c4.6,0,8,0.8,11.2,1.9v-0.8c0-5.4-3.3-8.4-9.9-8.4
		c-5,0-8.5,0.9-12.7,2.5l-3.3-10c5.1-2.2,10-3.7,17.8-3.7c7.1,0,12.3,1.9,15.5,5.1c3.4,3.4,5,8.5,5,14.7v26.7h-12.6v-5
		c-3.2,3.5-7.6,5.8-13.9,5.8C729.2,300.7,722.1,295.7,722.1,286.6z M752.1,283.6v-2.3c-2.2-1-5.1-1.7-8.3-1.7c-5.6,0-9,2.2-9,6.3
		v0.2c0,3.5,2.9,5.6,7.1,5.6C747.9,291.7,752.1,288.3,752.1,283.6z"/>
	<path class="st1" d="M777.4,286.8V265h-5.5v-11.2h5.5v-11.8h13v11.8h10.8V265h-10.8v19.6c0,3,1.3,4.5,4.2,4.5
		c2.4,0,4.5-0.6,6.4-1.6v10.5c-2.7,1.6-5.9,2.7-10.3,2.7C782.8,300.6,777.4,297.4,777.4,286.8z"/>
	<path class="st1" d="M807.3,277.1v-0.2c0-13.1,9.4-23.9,22.7-23.9c15.4,0,22.4,11.9,22.4,25c0,1-0.1,2.2-0.2,3.4h-32
		c1.3,5.9,5.4,9,11.2,9c4.4,0,7.6-1.4,11.2-4.7l7.5,6.6c-4.3,5.3-10.5,8.6-18.8,8.6C817.5,300.8,807.3,291.2,807.3,277.1z
		 M839.7,273.2c-0.8-5.8-4.2-9.8-9.7-9.8c-5.4,0-8.9,3.9-10,9.8H839.7z"/>
</g>
<g>
	<rect x="1104.9" y="7" class="st0" width="325.8" height="325.8"/>
	<path class="st1" d="M1423.6,14.1v311.7H1112V14.1H1423.6 M1437.8-0.1h-340v340h340V-0.1L1437.8-0.1z"/>
</g>
<g class="st2">
	<path class="st1" d="M1125.3,191.9v-0.2c0-15.4,10-23.8,20.9-23.8c7,0,11.2,3.2,14.3,6.9v-22.7h13v62.6h-13v-6.6
		c-3.2,4.3-7.6,7.5-14.3,7.5C1135.5,215.7,1125.3,207.3,1125.3,191.9z M1160.7,191.9v-0.2c0-7.6-5.1-12.7-11.2-12.7
		s-11.2,5-11.2,12.7v0.2c0,7.6,5.1,12.7,11.2,12.7S1160.7,199.5,1160.7,191.9z"/>
	<path class="st1" d="M1183,192.1v-0.2c0-13.1,9.4-23.9,22.7-23.9c15.4,0,22.4,11.9,22.4,25c0,1-0.1,2.2-0.2,3.4h-32
		c1.3,5.9,5.4,9,11.2,9c4.4,0,7.5-1.4,11.2-4.7l7.5,6.6c-4.3,5.3-10.5,8.6-18.8,8.6C1193.2,215.8,1183,206.2,1183,192.1z
		 M1215.4,188.2c-0.8-5.8-4.2-9.8-9.7-9.8c-5.4,0-8.9,3.9-10,9.8H1215.4z"/>
	<path class="st1" d="M1234.2,208.7l5.6-8.6c5,3.6,10.2,5.5,14.5,5.5c3.8,0,5.5-1.4,5.5-3.4V202c0-2.8-4.5-3.8-9.5-5.3
		c-6.4-1.9-13.7-4.9-13.7-13.8v-0.2c0-9.4,7.6-14.6,16.8-14.6c5.8,0,12.2,2,17.2,5.3l-5,9c-4.5-2.7-9.1-4.3-12.4-4.3
		c-3.2,0-4.8,1.4-4.8,3.2v0.2c0,2.6,4.4,3.8,9.4,5.5c6.4,2.1,13.9,5.2,13.9,13.6v0.2c0,10.2-7.6,14.8-17.6,14.8
		C1247.5,215.7,1240.3,213.5,1234.2,208.7z"/>
	<path class="st1" d="M1281.1,152.2h13.7v11.6h-13.7V152.2z M1281.5,168.8h13v46h-13V168.8z"/>
	<path class="st1" d="M1307.1,223.9l4.5-9.8c4.7,2.7,9.4,4.2,15.5,4.2c8.9,0,13.1-4.3,13.1-12.5v-2.2c-3.9,4.6-8.1,7.5-15,7.5
		c-10.7,0-20.4-7.8-20.4-21.5v-0.2c0-13.7,9.9-21.4,20.4-21.4c7.1,0,11.3,3,14.8,6.9v-6h13v35.6c0,8.2-2,14.2-5.8,18.1
		c-4.3,4.3-10.9,6.2-19.8,6.2C1319.9,228.7,1312.9,227,1307.1,223.9z M1340.2,189.6v-0.2c0-6.3-4.9-10.6-11.2-10.6
		s-11.2,4.4-11.2,10.6v0.2c0,6.3,4.8,10.6,11.2,10.6S1340.2,195.9,1340.2,189.6z"/>
	<path class="st1" d="M1364.7,168.8h13v6.5c3-3.9,6.9-7.4,13.5-7.4c9.9,0,15.6,6.5,15.6,17.1v29.8h-13v-25.7c0-6.2-2.9-9.4-7.9-9.4
		s-8.2,3.2-8.2,9.4v25.7h-13V168.8z"/>
</g>
<g class="st2">
	<path class="st1" d="M1162.2,294c-4.9,4-10.6,6.7-17.6,6.7c-11.5,0-20.2-6.7-20.2-17.3v-0.2c0-7.6,4.1-13,11.7-16.5
		c-2.9-4.1-4.2-7.9-4.2-12v-0.2c0-8.2,6.6-15.8,18.2-15.8c10.2,0,16.9,6.7,16.9,15.1v0.2c0,8.1-5.1,12.8-12.6,15.7l8,8
		c2-3.1,3.9-6.6,5.8-10.3l9.7,5.3c-2.3,4.2-4.9,8.7-7.9,12.7l8.8,8.8l-9.7,6.8L1162.2,294z M1154.8,286.4l-11.5-11.7
		c-3.9,2.1-5.6,5-5.6,7.9v0.2c0,4.2,3.5,7,8.4,7C1149.1,289.9,1152,288.6,1154.8,286.4z M1155.5,254.8v-0.2c0-3.4-2.3-5.6-5.7-5.6
		c-3.5,0-5.8,2.5-5.8,6.1v0.2c0,2.7,1,4.6,3.5,7.5C1152.7,260.8,1155.5,258.6,1155.5,254.8z"/>
	<path class="st1" d="M1183.4,293.7l5.6-8.6c5,3.6,10.2,5.5,14.5,5.5c3.8,0,5.5-1.4,5.5-3.4V287c0-2.8-4.5-3.8-9.5-5.3
		c-6.4-1.9-13.7-4.9-13.7-13.8v-0.2c0-9.4,7.5-14.6,16.8-14.6c5.8,0,12.2,2,17.2,5.3l-5,9c-4.5-2.7-9.1-4.3-12.4-4.3
		c-3.2,0-4.8,1.4-4.8,3.2v0.2c0,2.6,4.4,3.8,9.4,5.5c6.4,2.1,13.9,5.2,13.9,13.6v0.2c0,10.2-7.6,14.8-17.6,14.8
		C1196.7,300.7,1189.5,298.5,1183.4,293.7z"/>
	<path class="st1" d="M1230.1,237.2h13v23.2c3-3.9,6.9-7.4,13.5-7.4c9.9,0,15.6,6.5,15.6,17.1v29.8h-13v-25.7c0-6.2-2.9-9.4-7.9-9.4
		s-8.2,3.2-8.2,9.4v25.7h-13V237.2z"/>
	<path class="st1" d="M1280.8,286.6v-0.2c0-10,7.6-14.7,18.5-14.7c4.6,0,8,0.8,11.2,1.9v-0.8c0-5.4-3.3-8.4-9.9-8.4
		c-5,0-8.5,0.9-12.7,2.5l-3.3-10c5.1-2.2,10-3.7,17.8-3.7c7.1,0,12.3,1.9,15.5,5.1c3.4,3.4,5,8.5,5,14.7v26.7h-12.6v-5
		c-3.2,3.5-7.6,5.8-13.9,5.8C1287.9,300.7,1280.8,295.7,1280.8,286.6z M1310.8,283.6v-2.3c-2.2-1-5.1-1.7-8.3-1.7
		c-5.6,0-9,2.2-9,6.3v0.2c0,3.5,2.9,5.6,7.1,5.6C1306.6,291.7,1310.8,288.3,1310.8,283.6z"/>
	<path class="st1" d="M1334.3,253.8h13v9.3c2.7-6.3,7-10.5,14.7-10.1v13.6h-0.7c-8.7,0-14,5.2-14,16.2v17h-13V253.8z"/>
	<path class="st1" d="M1366.7,277.1v-0.2c0-13.1,9.4-23.9,22.7-23.9c15.4,0,22.4,11.9,22.4,25c0,1-0.1,2.2-0.2,3.4h-32
		c1.3,5.9,5.4,9,11.2,9c4.4,0,7.6-1.4,11.2-4.7l7.5,6.6c-4.3,5.3-10.5,8.6-18.8,8.6C1376.9,300.8,1366.7,291.2,1366.7,277.1z
		 M1399.1,273.2c-0.8-5.8-4.2-9.8-9.7-9.8c-5.4,0-8.9,3.9-10,9.8H1399.1z"/>
</g>
<g>
	<rect x="1653.9" y="7" class="st0" width="325.8" height="325.8"/>
	<path class="st1" d="M1972.6,14.1v311.7H1661V14.1H1972.6 M1986.8-0.1h-340v340h340V-0.1L1986.8-0.1z"/>
</g>
<g class="st2">
	<path class="st1" d="M1676.3,168.8h13v6.6c3.2-4.3,7.6-7.5,14.3-7.5c10.7,0,20.9,8.4,20.9,23.8v0.2c0,15.4-10,23.8-20.9,23.8
		c-7,0-11.2-3.2-14.3-6.9v19.7h-13V168.8z M1711.6,191.9v-0.2c0-7.6-5.1-12.7-11.2-12.7s-11.2,5.1-11.2,12.7v0.2
		c0,7.6,5.1,12.7,11.2,12.7S1711.6,199.6,1711.6,191.9z"/>
	<path class="st1" d="M1733.9,198.6v-29.8h13v25.7c0,6.2,2.9,9.4,7.9,9.4s8.2-3.2,8.2-9.4v-25.7h13v46h-13v-6.5
		c-3,3.9-6.9,7.4-13.5,7.4C1739.6,215.7,1733.9,209.2,1733.9,198.6z"/>
	<path class="st1" d="M1800.7,208.8v6h-13v-62.6h13v23.3c3.2-4.3,7.5-7.5,14.3-7.5c10.7,0,20.9,8.4,20.9,23.8v0.2
		c0,15.4-10,23.8-20.9,23.8C1808.1,215.7,1803.8,212.5,1800.7,208.8z M1822.9,191.9v-0.2c0-7.6-5.1-12.7-11.2-12.7
		s-11.2,5.1-11.2,12.7v0.2c0,7.6,5.1,12.7,11.2,12.7S1822.9,199.6,1822.9,191.9z"/>
	<path class="st1" d="M1846.2,152.2h13v62.6h-13V152.2z"/>
	<path class="st1" d="M1871.8,152.2h13.7v11.6h-13.7V152.2z M1872.1,168.8h13v46h-13V168.8z"/>
</g>
<g class="st2">
	<path class="st1" d="M1674.1,277.1v-0.2c0-13.1,10-23.9,24.1-23.9c8.7,0,14.1,2.9,18.4,7.7l-8,8.6c-2.9-3.1-5.8-5.1-10.5-5.1
		c-6.5,0-11.2,5.7-11.2,12.5v0.2c0,7,4.5,12.7,11.7,12.7c4.4,0,7.4-1.9,10.6-4.9l7.6,7.7c-4.5,4.9-9.6,8.4-18.8,8.4
		C1684.2,300.8,1674.1,290.2,1674.1,277.1z"/>
	<path class="st1" d="M1722.6,286.6v-0.2c0-10,7.6-14.7,18.5-14.7c4.6,0,8,0.8,11.2,1.9v-0.8c0-5.4-3.3-8.4-9.9-8.4
		c-5,0-8.5,0.9-12.7,2.5l-3.3-10c5.1-2.2,10-3.7,17.8-3.7c7.1,0,12.3,1.9,15.5,5.1c3.4,3.4,5,8.5,5,14.7v26.7h-12.6v-5
		c-3.2,3.5-7.6,5.8-13.9,5.8C1729.7,300.7,1722.6,295.7,1722.6,286.6z M1752.5,283.6v-2.3c-2.2-1-5.1-1.7-8.3-1.7
		c-5.6,0-9,2.2-9,6.3v0.2c0,3.5,2.9,5.6,7.1,5.6C1748.4,291.7,1752.5,288.3,1752.5,283.6z"/>
	<path class="st1" d="M1777.8,286.8V265h-5.5v-11.2h5.5v-11.8h13v11.8h10.8V265h-10.8v19.6c0,3,1.3,4.5,4.2,4.5
		c2.4,0,4.5-0.6,6.4-1.6v10.5c-2.7,1.6-5.9,2.7-10.3,2.7C1783.2,300.6,1777.8,297.4,1777.8,286.8z"/>
	<path class="st1" d="M1811.5,237.2h13.7v11.6h-13.7V237.2z M1811.9,253.8h13v46h-13V253.8z"/>
	<path class="st1" d="M1835,277.1v-0.2c0-13.2,10.6-23.9,25-23.9c14.2,0,24.8,10.6,24.8,23.8v0.2c0,13.2-10.6,23.9-25,23.9
		C1845.5,300.8,1835,290.3,1835,277.1z M1871.8,277.1v-0.2c0-6.8-4.9-12.7-12.1-12.7c-7.5,0-11.9,5.7-11.9,12.5v0.2
		c0,6.8,4.9,12.7,12.1,12.7C1867.4,289.6,1871.8,283.9,1871.8,277.1z"/>
	<path class="st1" d="M1894.2,253.8h13v6.5c3-3.9,6.9-7.4,13.5-7.4c9.9,0,15.6,6.5,15.6,17.1v29.8h-13v-25.7c0-6.2-2.9-9.4-7.9-9.4
		c-5,0-8.2,3.2-8.2,9.4v25.7h-13V253.8z"/>
</g>
<polygon class="st1" points="429.8,204.1 429.8,134.6 464.6,169.4 "/>
<polygon class="st1" points="978.8,204.1 978.8,134.6 1013.6,169.4 "/>
<polygon class="st1" points="1527.8,204.1 1527.8,134.6 1562.6,169.4 "/>
</svg>
